PathFileType	4	(X/Y/Z)	s06c0401.trc
DataRate	CameraRate	NumFrames	NumMarkers	Units	OrigDataRate	OrigDataStartFrame	OrigNumFrames
200	200	5	48	mm	200	1500	2000
Frame#	Time	racr			lacr			c7			jug			rlel			rdr			llel			ldr			s2			lic			ric			lasi			rasi			rpsi			lpsi			rgt			lgt			rth1			rth2			rth3			rth4			rlfc			rmfc			rsh1			rsh2			rsh3			rsh4			rlmal			rcal			rtoe			rmt5			lth1			lth2			lth4			lth3			llfc			lmfc			llmal			lcal			lmt5			lsh1			lsh2			lsh3			lsh4			ltoe			SBIKE			LBIKE			RBIKE			
		X1	Y1	Z1	X2	Y2	Z2	X3	Y3	Z3	X4	Y4	Z4	X5	Y5	Z5	X6	Y6	Z6	X7	Y7	Z7	X8	Y8	Z8	X9	Y9	Z9	X10	Y10	Z10	X11	Y11	Z11	X12	Y12	Z12	X13	Y13	Z13	X14	Y14	Z14	X15	Y15	Z15	X16	Y16	Z16	X17	Y17	Z17	X18	Y18	Z18	X19	Y19	Z19	X20	Y20	Z20	X21	Y21	Z21	X22	Y22	Z22	X23	Y23	Z23	X24	Y24	Z24	X25	Y25	Z25	X26	Y26	Z26	X27	Y27	Z27	X28	Y28	Z28	X29	Y29	Z29	X30	Y30	Z30	X31	Y31	Z31	X32	Y32	Z32	X33	Y33	Z33	X34	Y34	Z34	X35	Y35	Z35	X36	Y36	Z36	X37	Y37	Z37	X38	Y38	Z38	X39	Y39	Z39	X40	Y40	Z40	X41	Y41	Z41	X42	Y42	Z42	X43	Y43	Z43	X44	Y44	Z44	X45	Y45	Z45	X46	Y46	Z46	X47	Y47	Z47	X48	Y48	Z48	
1500	7.5000	524.171948	1300.620857	-58.832476	548.434802	1293.910519	-385.404312	522.417354	1398.276170	-219.634572	522.759560	1219.132234	-209.422165	504.964677	1055.203623	65.876072	656.131113	915.497330	-55.665764	489.228789	1051.722565	-503.067368	653.657389	920.492930	-411.340050	-0.204523	1131.897567	-238.541575	184.883238	1096.426292	-402.752315	134.706179	1116.862858	-70.094064	196.302195	1033.824099	-370.905507	164.143099	1065.869668	-94.844135	34.187716	1176.396650	-211.717039	34.114761	1166.119771	-273.073375	119.503106	1068.849234	-33.186977	139.617099	1012.751325	-426.675342	226.815201	1019.577284	-27.604523	316.640717	1009.355823	-32.968329	384.846336	959.163892	-30.072215	326.358242	1039.288085	-54.915808	460.364952	882.787276	-53.644992	456.782856	855.545691	-168.844393	407.876523	769.251716	-31.954609	380.046312	688.781520	-53.658628	317.890251	627.586922	-54.873453	399.180414	682.040163	-88.515857	264.339533	564.077006	-59.645878	195.608736	554.778802	-108.660277	444.666531	436.179149	-107.895225	347.640820	455.102078	-38.438338	176.873303	892.666566	-439.692332	237.324561	829.967112	-435.010621	269.543038	847.843015	-428.230169	258.305702	743.776719	-425.142304	276.306311	633.158326	-399.517508	283.209445	616.921306	-284.788320	74.730684	326.735279	-380.659171	8.096132	345.584384	-331.576830	126.347183	189.365888	-408.048117	220.148051	541.456936	-419.220686	193.395848	460.810055	-399.047416	130.450864	400.239539	-400.277312	217.877681	450.360436	-369.811664	197.170194	137.559475	-351.048011	-204.673389	868.256922	-220.684033	-50.265645	79.535609	-419.617301	-50.372206	79.952871	-22.362214	
1501	7.5050	524.001077	1300.766162	-58.875777	547.756066	1294.370427	-385.705349	521.989221	1398.550259	-219.713403	522.429324	1219.372675	-209.437656	505.154547	1055.277438	65.671250	656.247800	915.233002	-55.711576	489.171971	1051.734437	-502.863064	653.788220	920.503608	-411.298889	-0.327619	1131.608025	-238.398712	184.635515	1096.813428	-402.629054	134.967852	1116.251513	-70.213987	196.187757	1034.215198	-370.824069	164.421624	1065.365850	-95.166971	34.045874	1176.065270	-211.464518	33.896617	1165.930616	-272.796021	119.567013	1067.719555	-33.261890	139.696324	1013.264760	-426.792953	226.841601	1017.881763	-27.695688	316.666686	1007.298880	-33.056856	384.634107	956.810035	-30.460369	326.473717	1037.242288	-54.894083	459.960652	880.133584	-53.811245	456.220720	852.911424	-168.926258	407.978959	766.216889	-31.987697	380.330445	685.577199	-54.111884	319.288208	623.767295	-54.901718	399.303908	678.827133	-89.032415	266.455302	559.990685	-59.339776	197.867648	550.145841	-108.574076	447.840606	433.526794	-107.908221	350.713293	451.690293	-38.439422	177.767092	893.474510	-439.488987	238.726614	831.319988	-434.859558	270.796718	849.441241	-428.109869	260.403141	745.247261	-424.820594	278.667574	634.612615	-399.333568	285.681849	618.724120	-284.419616	73.947896	330.370257	-380.742081	7.522476	350.257146	-331.686153	123.367577	192.420966	-408.184817	221.785263	543.565684	-418.920490	194.204000	463.227652	-398.917809	130.614670	403.281333	-400.255155	218.481648	452.526978	-369.671896	193.515928	139.441358	-351.110040	-204.685213	868.237376	-220.667747	-50.262078	79.516291	-419.588457	-50.369314	79.935168	-22.366937	
1502	7.5100	523.835481	1300.987131	-58.944653	547.191485	1294.771807	-385.952605	521.586716	1398.812776	-219.778023	522.084470	1219.614300	-209.539519	505.360116	1055.333189	65.407429	656.363878	915.017496	-55.758014	489.143739	1051.733721	-502.683950	653.941500	920.504491	-411.260644	-0.408706	1131.370904	-238.274406	184.398168	1097.159595	-402.501229	135.076491	1115.615715	-70.160231	196.079963	1034.678246	-370.690477	164.728812	1064.948457	-95.324135	33.928774	1175.684741	-211.195853	33.734271	1165.674061	-272.508362	119.645881	1066.631316	-33.331202	139.812862	1013.770972	-426.900777	226.769673	1015.912239	-28.451294	316.638900	1005.239716	-33.118006	384.914465	954.079747	-31.738767	326.587017	1035.239141	-54.796816	460.384962	876.140118	-55.521087	455.697659	850.260715	-168.957107	408.024641	763.214038	-32.027454	381.073930	682.335288	-54.120588	320.582304	619.970452	-54.934151	400.169883	675.762868	-88.972716	268.542751	555.833950	-59.268528	199.968680	545.516733	-108.493076	450.889907	430.925689	-107.943744	353.633812	448.196070	-38.388269	178.649260	894.425715	-439.195852	240.100645	832.741090	-434.656383	272.031151	851.155477	-427.878807	262.527883	746.829072	-424.439587	281.059750	636.220251	-399.182613	288.300849	620.362028	-284.120861	73.269243	333.985036	-380.889860	7.036914	354.881964	-331.751133	120.596159	195.302839	-408.151617	223.460131	545.725689	-418.804971	195.023962	465.609361	-398.728915	130.855696	406.341232	-400.276549	219.198137	454.748927	-369.530392	189.935610	141.318950	-351.076208	-204.690334	868.244020	-220.639001	-50.247551	79.498744	-419.586990	-50.379669	79.937592	-22.369415	
1503	7.5150	523.639582	1301.177226	-59.083692	546.632420	1295.107057	-386.208660	521.191731	1399.038225	-219.838673	521.631055	1219.870785	-209.762915	505.592514	1055.407426	65.137042	656.436392	914.744584	-55.831406	489.127572	1051.740724	-502.525777	654.062343	920.509203	-411.182546	-0.487486	1131.109334	-238.082409	184.151235	1097.472224	-402.370335	135.339786	1115.096038	-70.103422	195.957425	1035.235335	-370.457603	165.248509	1064.643744	-95.397622	33.906935	1175.142583	-211.093581	33.606348	1165.475084	-272.307404	119.652441	1065.525316	-33.382673	139.979020	1014.218618	-427.035506	226.655402	1013.704500	-28.703332	316.590501	1003.206117	-33.073587	384.708916	951.277676	-32.467457	326.746337	1033.202881	-54.714523	459.952674	873.171186	-56.029875	455.030131	847.397094	-169.072925	407.870916	760.204388	-32.235158	382.353872	678.927017	-53.701136	321.796190	616.138299	-54.945925	402.082089	672.805853	-88.213651	270.526268	551.680373	-59.281500	201.974492	540.890716	-108.461452	453.835796	428.177837	-107.936638	356.345811	444.727304	-38.392789	179.467028	895.379087	-438.846424	241.482705	834.220280	-434.460797	273.238283	852.852804	-427.511866	264.677260	748.429251	-424.573698	283.503470	637.784035	-399.046300	290.889717	622.163718	-283.748692	72.643267	337.659065	-381.027162	6.670917	359.500453	-331.840899	117.910601	198.283973	-408.304571	225.178058	547.842671	-418.712432	195.901618	468.057326	-398.708419	131.112895	409.475532	-400.271397	219.874039	456.910068	-369.384593	186.424656	143.327188	-350.977217	-204.706347	868.212707	-220.574097	-50.235927	79.485592	-419.581681	-50.364486	79.938717	-22.377882	
1504	7.5200	523.457072	1301.430761	-59.155115	546.072755	1295.500675	-386.462905	520.764360	1399.267277	-219.987847	521.274249	1220.078028	-210.002782	505.525381	1055.738533	65.142113	656.522719	914.530877	-55.916381	489.133158	1051.734860	-502.384220	654.134542	920.393652	-410.946910	-2.338530	1130.651641	-234.560511	183.927820	1097.795287	-402.269397	135.701126	1114.579277	-70.059690	195.852353	1035.664627	-370.294741	166.045686	1064.559513	-95.693800	33.787227	1174.855816	-210.776326	33.499323	1165.206448	-272.114049	120.588354	1064.450164	-33.378471	140.160854	1014.724523	-427.137661	226.891050	1012.412692	-28.431066	316.589015	1000.980410	-33.103055	384.540207	948.517274	-33.061789	326.899532	1031.096217	-54.605501	459.342377	870.407949	-56.644582	454.344633	844.438661	-169.108283	407.683613	757.281058	-32.328886	382.364478	675.698473	-54.070719	322.931903	612.324071	-54.971438	401.123412	669.539347	-88.488411	272.379235	547.502454	-59.216597	203.977551	536.190061	-108.364004	456.631901	425.334714	-107.946841	359.174923	440.622756	-38.910023	180.332078	896.358774	-438.502091	242.855918	835.684517	-434.170473	274.367456	854.571334	-427.119020	266.778562	750.106774	-424.813193	285.873182	639.367375	-398.943105	293.417147	623.760059	-283.556672	72.138023	341.256983	-381.200071	6.368525	364.113147	-331.939276	115.352449	201.410268	-408.263340	226.905963	549.968562	-418.655640	196.803726	470.508457	-398.673891	131.409398	412.517828	-400.265602	220.645330	459.134643	-369.334705	183.066723	145.507293	-351.032949	-204.707484	868.183168	-220.532526	-50.226636	79.482396	-419.565326	-50.365494	79.948974	-22.372436	
